<svg width="799" height="367" viewBox="0 0 799 367" fill="none" xmlns="http://www.w3.org/2000/svg">
<g clip-path="url(#clip0_769_14097)">
<rect width="799" height="367" rx="56" fill="white"/>
<rect x="-5" width="809" height="285" fill="#28363F"/>
<g filter="url(#filter0_d_769_14097)">
<rect x="-14" y="6" width="198" height="273" stroke="#56473B" stroke-width="12" shape-rendering="crispEdges"/>
</g>
<rect x="196" y="6" width="198" height="273" stroke="#56473B" stroke-width="12"/>
<g filter="url(#filter1_d_769_14097)">
<rect x="196" y="6" width="198" height="273" stroke="#56473B" stroke-width="12" shape-rendering="crispEdges"/>
</g>
<g filter="url(#filter2_d_769_14097)">
<rect x="406" y="6" width="198" height="273" stroke="#56473B" stroke-width="12" shape-rendering="crispEdges"/>
</g>
<g filter="url(#filter3_d_769_14097)">
<rect x="616" y="6" width="198" height="273" stroke="#56473B" stroke-width="12" shape-rendering="crispEdges"/>
</g>
<rect x="-5" y="285" width="809" height="82" fill="#826C57"/>
<rect x="255.023" y="22" width="5.17355" height="28.6465" rx="2.58677" transform="rotate(41.6056 255.023 22)" fill="white"/>
<rect x="232.023" y="47" width="5.17355" height="8.02927" rx="2.58677" transform="rotate(41.6056 232.023 47)" fill="white"/>
<rect x="242.938" y="49" width="5.17355" height="20.9925" rx="2.58677" transform="rotate(41.6056 242.938 49)" fill="white"/>
<rect x="34.332" y="22" width="5.17355" height="28.6465" rx="2.58677" transform="rotate(41.6056 34.332 22)" fill="white"/>
<rect x="11.332" y="47" width="5.17355" height="8.02927" rx="2.58677" transform="rotate(41.6056 11.332 47)" fill="white"/>
<rect x="22.2461" y="49" width="5.17355" height="20.9925" rx="2.58677" transform="rotate(41.6056 22.2461 49)" fill="white"/>
<rect x="465.332" y="26" width="5.17355" height="28.6465" rx="2.58677" transform="rotate(41.6056 465.332 26)" fill="white"/>
<rect x="442.332" y="51" width="5.17355" height="8.02927" rx="2.58677" transform="rotate(41.6056 442.332 51)" fill="white"/>
<rect x="453.246" y="53" width="5.17355" height="20.9925" rx="2.58677" transform="rotate(41.6056 453.246 53)" fill="white"/>
<rect x="675.332" y="26" width="5.17355" height="28.6465" rx="2.58677" transform="rotate(41.6056 675.332 26)" fill="white"/>
<rect x="652.332" y="51" width="5.17355" height="8.02927" rx="2.58677" transform="rotate(41.6056 652.332 51)" fill="white"/>
<rect x="663.25" y="53" width="5.17355" height="20.9925" rx="2.58677" transform="rotate(41.6056 663.25 53)" fill="white"/>
</g>
<defs>
<filter id="filter0_d_769_14097" x="-42" y="-22" width="254" height="329" filterUnits="userSpaceOnUse" color-interpolation-filters="sRGB">
<feFlood flood-opacity="0" result="BackgroundImageFix"/>
<feColorMatrix in="SourceAlpha" type="matrix" values="0 0 0 0 0 0 0 0 0 0 0 0 0 0 0 0 0 0 127 0" result="hardAlpha"/>
<feMorphology radius="12" operator="dilate" in="SourceAlpha" result="effect1_dropShadow_769_14097"/>
<feOffset/>
<feGaussianBlur stdDeviation="5"/>
<feComposite in2="hardAlpha" operator="out"/>
<feColorMatrix type="matrix" values="0 0 0 0 0 0 0 0 0 0 0 0 0 0 0 0 0 0 0.05 0"/>
<feBlend mode="normal" in2="BackgroundImageFix" result="effect1_dropShadow_769_14097"/>
<feBlend mode="normal" in="SourceGraphic" in2="effect1_dropShadow_769_14097" result="shape"/>
</filter>
<filter id="filter1_d_769_14097" x="168" y="-22" width="254" height="329" filterUnits="userSpaceOnUse" color-interpolation-filters="sRGB">
<feFlood flood-opacity="0" result="BackgroundImageFix"/>
<feColorMatrix in="SourceAlpha" type="matrix" values="0 0 0 0 0 0 0 0 0 0 0 0 0 0 0 0 0 0 127 0" result="hardAlpha"/>
<feMorphology radius="12" operator="dilate" in="SourceAlpha" result="effect1_dropShadow_769_14097"/>
<feOffset/>
<feGaussianBlur stdDeviation="5"/>
<feComposite in2="hardAlpha" operator="out"/>
<feColorMatrix type="matrix" values="0 0 0 0 0 0 0 0 0 0 0 0 0 0 0 0 0 0 0.05 0"/>
<feBlend mode="normal" in2="BackgroundImageFix" result="effect1_dropShadow_769_14097"/>
<feBlend mode="normal" in="SourceGraphic" in2="effect1_dropShadow_769_14097" result="shape"/>
</filter>
<filter id="filter2_d_769_14097" x="378" y="-22" width="254" height="329" filterUnits="userSpaceOnUse" color-interpolation-filters="sRGB">
<feFlood flood-opacity="0" result="BackgroundImageFix"/>
<feColorMatrix in="SourceAlpha" type="matrix" values="0 0 0 0 0 0 0 0 0 0 0 0 0 0 0 0 0 0 127 0" result="hardAlpha"/>
<feMorphology radius="12" operator="dilate" in="SourceAlpha" result="effect1_dropShadow_769_14097"/>
<feOffset/>
<feGaussianBlur stdDeviation="5"/>
<feComposite in2="hardAlpha" operator="out"/>
<feColorMatrix type="matrix" values="0 0 0 0 0 0 0 0 0 0 0 0 0 0 0 0 0 0 0.05 0"/>
<feBlend mode="normal" in2="BackgroundImageFix" result="effect1_dropShadow_769_14097"/>
<feBlend mode="normal" in="SourceGraphic" in2="effect1_dropShadow_769_14097" result="shape"/>
</filter>
<filter id="filter3_d_769_14097" x="588" y="-22" width="254" height="329" filterUnits="userSpaceOnUse" color-interpolation-filters="sRGB">
<feFlood flood-opacity="0" result="BackgroundImageFix"/>
<feColorMatrix in="SourceAlpha" type="matrix" values="0 0 0 0 0 0 0 0 0 0 0 0 0 0 0 0 0 0 127 0" result="hardAlpha"/>
<feMorphology radius="12" operator="dilate" in="SourceAlpha" result="effect1_dropShadow_769_14097"/>
<feOffset/>
<feGaussianBlur stdDeviation="5"/>
<feComposite in2="hardAlpha" operator="out"/>
<feColorMatrix type="matrix" values="0 0 0 0 0 0 0 0 0 0 0 0 0 0 0 0 0 0 0.05 0"/>
<feBlend mode="normal" in2="BackgroundImageFix" result="effect1_dropShadow_769_14097"/>
<feBlend mode="normal" in="SourceGraphic" in2="effect1_dropShadow_769_14097" result="shape"/>
</filter>
<clipPath id="clip0_769_14097">
<rect width="799" height="367" rx="56" fill="white"/>
</clipPath>
</defs>
</svg>
